HIERARCHY
ROOT joint_Root
{
	OFFSET 0.0 0.0 0.0
	CHANNELS 6 Xposition Yposition Zposition Zrotation Xrotation Yrotation 
	JOINT Hips
	{
		OFFSET -17.1583 93.1646 452.98
		CHANNELS 6 Xposition Yposition Zposition Zrotation Xrotation Yrotation 
		JOINT Spine
		{
			OFFSET 15.7357 0.0 0.0
			CHANNELS 6 Xposition Yposition Zposition Zrotation Xrotation Yrotation 
			JOINT Chest
			{
				OFFSET 8.98455 -0.406207 0.0
				CHANNELS 6 Xposition Yposition Zposition Zrotation Xrotation Yrotation 
				JOINT Neck
				{
					OFFSET 16.3773 0.0 0.0
					CHANNELS 6 Xposition Yposition Zposition Zrotation Xrotation Yrotation 
					JOINT Head
					{
						OFFSET 6.45672 0.0 0.0
						CHANNELS 6 Xposition Yposition Zposition Zrotation Xrotation Yrotation 
						End Site
						{
							OFFSET 0.0 0.0 0.0
						}
					}
				}
				JOINT Shoulder_L
				{
					OFFSET 12.9942 -0.242716 4.98039
					CHANNELS 6 Xposition Yposition Zposition Zrotation Xrotation Yrotation 
					JOINT UpperArm_L
					{
						OFFSET 5.34809 0.0 0.0
						CHANNELS 6 Xposition Yposition Zposition Zrotation Xrotation Yrotation 
						JOINT LowerArm_L
						{
							OFFSET 24.3286 1.87007e-05 0.0
							CHANNELS 6 Xposition Yposition Zposition Zrotation Xrotation Yrotation 
							JOINT Hand_L
							{
								OFFSET 22.2916 0.0 0.0
								CHANNELS 6 Xposition Yposition Zposition Zrotation Xrotation Yrotation 
								End Site
								{
									OFFSET 0.0 0.0 0.0
								}
							}
						}
					}
				}
				JOINT Shoulder_R
				{
					OFFSET 12.9945 -0.242716 -4.98039
					CHANNELS 6 Xposition Yposition Zposition Zrotation Xrotation Yrotation 
					JOINT UpperArm_R
					{
						OFFSET -5.34813 0.0 0.0
						CHANNELS 6 Xposition Yposition Zposition Zrotation Xrotation Yrotation 
						JOINT LowerArm_R
						{
							OFFSET -24.3289 0.000322201 0.0
							CHANNELS 6 Xposition Yposition Zposition Zrotation Xrotation Yrotation 
							JOINT Hand_R
							{
								OFFSET -22.2915 -0.000108084 0.0
								CHANNELS 6 Xposition Yposition Zposition Zrotation Xrotation Yrotation 
								End Site
								{
									OFFSET 0.0 0.0 0.0
								}
							}
						}
					}
				}
			}
		}
		JOINT UpperLeg_L
		{
			OFFSET -2.19248 -6.46944 0.0
			CHANNELS 6 Xposition Yposition Zposition Zrotation Xrotation Yrotation 
			JOINT LowerLeg_L
			{
				OFFSET 39.0811 0.0 -1.23785e-05
				CHANNELS 6 Xposition Yposition Zposition Zrotation Xrotation Yrotation 
				JOINT Foot_L
				{
					OFFSET 40.9854 0.0 -1.26872e-05
					CHANNELS 6 Xposition Yposition Zposition Zrotation Xrotation Yrotation 
					JOINT Toes_L
					{
						OFFSET 11.7543 0.0 0.0
						CHANNELS 6 Xposition Yposition Zposition Zrotation Xrotation Yrotation 
						End Site
						{
							OFFSET 0.0 0.0 0.0
						}
					}
				}
			}
		}
		JOINT UpperLeg_R
		{
			OFFSET -2.19251 6.46944 0.0
			CHANNELS 6 Xposition Yposition Zposition Zrotation Xrotation Yrotation 
			JOINT LowerLeg_R
			{
				OFFSET -39.0811 -0.00228153 -0.0401928
				CHANNELS 6 Xposition Yposition Zposition Zrotation Xrotation Yrotation 
				JOINT Foot_R
				{
					OFFSET -40.9854 0.0 0.0
					CHANNELS 6 Xposition Yposition Zposition Zrotation Xrotation Yrotation 
					JOINT Toes_R
					{
						OFFSET -11.7543 0.0 0.0
						CHANNELS 6 Xposition Yposition Zposition Zrotation Xrotation Yrotation 
						End Site
						{
							OFFSET 0.0 0.0 0.0
						}
					}
				}
			}
		}
	}
}
MOTION
Frames:	9
Frame Time:	0.0333333
0.000000 0.000000 0.000000 0.000000 0.000000 -0.000000 -221.586000 88.680500 243.549000 -39.087000 82.496500 127.489000 15.735700 0.000005 -0.000001 58.742400 87.058000 -55.106900 8.984550 -0.406207 -0.000000 -2.620390 -3.381220 7.195580 16.377300 -0.000001 -0.000001 -2.542890 1.729820 0.307067 6.456720 -0.000001 -0.000000 2.213420 3.928230 -1.377070 12.994200 -0.242716 4.980390 -93.165800 9.934520 -72.224200 5.348090 -0.000007 -0.000001 -66.961700 -8.578930 1.993230 24.328600 0.000019 0.000005 0.872970 48.146700 -1.171640 22.291600 -0.000001 0.000005 -19.371100 5.074370 5.641500 12.994500 -0.242716 -4.980390 88.527700 4.583310 -72.170600 -5.348130 -0.000001 -0.000004 -69.625100 13.591000 0.354935 -24.328900 0.000322 -0.000009 0.474463 1.605160 -16.562500 -22.291500 -0.000108 -0.000004 3.549930 5.219520 2.235500 -2.192480 -6.469440 -0.000000 -167.967000 1.698600 -11.108900 39.081100 -0.000007 -0.000012 0.288943 -0.148073 62.865900 40.985400 -0.000006 -0.000013 -7.554180 9.609040 -34.767100 11.754300 -0.000000 0.000003 0.001161 0.022601 -15.660000 -2.192510 6.469440 -0.000001 -172.462000 2.506880 167.362000 -39.081100 -0.002282 -0.040193 -0.014082 0.022605 37.534000 -40.985400 0.000008 0.000006 -7.432900 -4.680150 -80.633400 -11.754300 -0.000006 -0.000006 -0.004278 0.221972 -7.564400
0.000000 0.000000 0.000000 0.000000 0.000000 -0.000000 -218.555000 90.395600 243.331000 -41.364600 84.627800 129.907000 15.735700 0.000005 -0.000001 72.520000 87.139900 -69.793300 8.984550 -0.406207 -0.000000 -2.258020 -1.956070 5.414840 16.377300 -0.000001 -0.000001 -3.161600 1.391990 0.342876 6.456720 -0.000001 -0.000000 1.268420 2.961870 -1.243470 12.994200 -0.242716 4.980390 -92.979800 9.010490 -71.614300 5.348090 -0.000007 -0.000001 -61.413200 -13.958100 7.413620 24.328600 0.000019 0.000005 1.861330 45.257900 -2.621730 22.291600 -0.000001 0.000005 -13.950200 5.014500 7.020640 12.994500 -0.242716 -4.980390 88.713200 4.100520 -72.560700 -5.348130 -0.000001 -0.000004 -70.861700 19.270000 -1.529200 -24.328900 0.000322 -0.000009 -0.276133 -0.531739 -27.118800 -22.291500 -0.000108 -0.000004 5.895700 5.310240 -0.203656 -2.192480 -6.469440 -0.000000 -170.645000 0.653653 -15.543100 39.081100 -0.000007 -0.000012 0.274828 -0.140062 62.994300 40.985400 -0.000006 -0.000013 -8.348180 10.974800 -41.593600 11.754300 -0.000000 0.000003 0.001344 0.026979 -15.482400 -2.192510 6.469440 -0.000001 -174.550000 1.776680 172.297000 -39.081100 -0.002282 -0.040193 -0.018050 0.034659 31.632000 -40.985400 0.000008 0.000006 -7.656950 -4.575870 -76.562100 -11.754300 -0.000006 -0.000006 -0.001465 0.189473 -8.886840
0.000000 0.000000 0.000000 0.000000 0.000000 -0.000000 -215.696000 92.047300 243.031000 -34.323800 87.174900 122.464000 15.735700 0.000005 -0.000001 89.938700 87.267800 -88.121000 8.984550 -0.406207 -0.000000 -2.296320 -0.165367 3.631800 16.377300 -0.000001 -0.000001 -3.713350 1.310820 0.181982 6.456720 -0.000001 -0.000000 0.589364 1.878010 -1.103890 12.994200 -0.242716 4.980390 -92.713100 7.805590 -70.763900 5.348090 -0.000007 -0.000001 -55.806800 -15.827800 12.520800 24.328600 0.000019 0.000005 3.842090 38.398200 -6.174900 22.291600 -0.000001 0.000005 -8.717910 5.031490 6.640200 12.994500 -0.242716 -4.980390 89.052900 3.108020 -73.045400 -5.348130 -0.000001 -0.000004 -71.262600 23.484600 -3.825890 -24.328900 0.000322 -0.000009 -1.382680 -1.848710 -36.763200 -22.291500 -0.000108 -0.000004 7.706360 5.391560 -2.662310 -2.192480 -6.469440 -0.000000 -173.275000 -0.599289 -18.947800 39.081100 -0.000007 -0.000012 0.247839 -0.149011 58.983500 40.985400 -0.000006 -0.000013 -9.941200 11.878700 -48.336400 11.754300 -0.000000 0.000003 0.001586 0.033337 -15.224400 -2.192510 6.469440 -0.000001 -176.688000 1.457310 175.736000 -39.081100 -0.002282 -0.040193 -0.010425 0.027303 26.702600 -40.985400 0.000008 0.000006 -6.953920 -4.162440 -71.251800 -11.754300 -0.000006 -0.000006 0.001289 0.142063 -10.812100
0.000000 0.000000 0.000000 0.000000 0.000000 -0.000000 -212.979000 93.357100 242.760000 2.157050 88.991100 85.085100 15.735700 0.000005 -0.000001 105.566000 87.411600 -104.514000 8.984550 -0.406207 -0.000000 -2.790340 1.291780 2.137480 16.377300 -0.000001 -0.000001 -3.888150 1.368360 -0.104264 6.456720 -0.000001 -0.000000 0.211299 1.002400 -0.919207 12.994200 -0.242716 4.980390 -92.335700 6.464130 -70.084300 5.348090 -0.000007 -0.000001 -50.695500 -16.584100 16.691300 24.328600 0.000019 0.000005 3.948950 28.162400 -8.325530 22.291600 -0.000001 0.000005 -3.472720 5.004900 7.202400 12.994500 -0.242716 -4.980390 89.382700 2.103220 -73.640000 -5.348130 -0.000001 -0.000004 -70.668800 26.041400 -6.808110 -24.328900 0.000322 -0.000009 -2.529940 -2.574290 -44.503100 -22.291500 -0.000108 -0.000004 7.788020 5.447100 -4.538420 -2.192480 -6.469440 -0.000000 -175.300000 -0.987541 -21.524800 39.081100 -0.000007 -0.000012 0.181708 -0.146473 51.127400 40.985400 -0.000006 -0.000013 -10.142500 13.155500 -53.357100 11.754300 -0.000000 0.000003 0.001647 0.035092 -15.153300 -2.192510 6.469440 -0.000001 -178.569000 2.688440 178.086000 -39.081100 -0.002282 -0.040193 0.000088 0.007788 22.519400 -40.985400 0.000008 0.000006 -5.375850 -2.806310 -66.204700 -11.754300 -0.000006 -0.000006 0.002449 0.094466 -12.742300
0.000000 0.000000 0.000000 0.000000 0.000000 -0.000000 -210.288000 94.180800 242.592000 75.820000 89.141600 10.498100 15.735700 0.000005 -0.000001 116.899000 87.490300 -116.357000 8.984550 -0.406207 -0.000000 -3.301180 2.217470 1.147450 16.377300 -0.000001 -0.000001 -4.113420 1.481720 -0.450271 6.456720 -0.000001 -0.000000 0.249417 0.450469 -0.843089 12.994200 -0.242716 4.980390 -92.029900 5.518850 -69.770000 5.348090 -0.000007 -0.000001 -45.801800 -18.184600 19.670300 24.328600 0.000019 0.000005 2.775210 17.821200 -9.001360 22.291600 -0.000001 0.000005 3.837910 4.926750 8.827620 12.994500 -0.242716 -4.980390 89.594100 1.436050 -74.216400 -5.348130 -0.000001 -0.000004 -68.679700 27.370200 -10.587000 -24.328900 0.000322 -0.000009 -4.033070 -3.329610 -50.502200 -22.291500 -0.000108 -0.000004 6.373980 5.461480 -5.054890 -2.192480 -6.469440 -0.000000 -176.288000 -0.299532 -22.725800 39.081100 -0.000007 -0.000012 0.110368 -0.134208 39.432300 40.985400 -0.000006 -0.000013 -9.684900 14.076300 -54.895900 11.754300 -0.000000 0.000003 0.001681 0.036070 -15.113600 -2.192510 6.469440 -0.000001 -179.849000 5.133280 -179.946000 -39.081100 -0.002282 -0.040193 0.007459 -0.011871 19.210700 -40.985400 0.000008 0.000006 -3.071670 -0.807625 -62.023000 -11.754300 -0.000006 -0.000006 0.001508 0.031198 -15.307600
0.000000 0.000000 0.000000 0.000000 0.000000 -0.000000 -207.494000 94.384600 242.528000 86.705200 88.945800 -0.860989 15.735700 0.000005 -0.000001 123.942000 87.455300 -123.630000 8.984550 -0.406207 -0.000000 -3.553560 2.809270 0.711459 16.377300 -0.000001 -0.000001 -4.183960 1.601510 -0.873584 6.456720 -0.000001 -0.000000 0.553676 0.213249 -0.645615 12.994200 -0.242716 4.980390 -91.743900 4.837920 -70.150700 5.348090 -0.000007 -0.000001 -41.077300 -21.796200 21.773600 24.328600 0.000019 0.000005 1.417370 9.547220 -8.480100 22.291600 -0.000001 0.000005 13.574800 4.851150 10.288800 12.994500 -0.242716 -4.980390 89.725200 1.009220 -74.768800 -5.348130 -0.000001 -0.000004 -65.963400 27.740800 -14.741100 -24.328900 0.000322 -0.000009 -5.697840 -4.055380 -54.661900 -22.291500 -0.000108 -0.000004 5.320820 5.460350 -5.013560 -2.192480 -6.469440 -0.000000 -176.117000 0.703676 -21.803100 39.081100 -0.000007 -0.000012 0.056564 -0.124468 24.439100 40.985400 -0.000006 -0.000013 -8.747150 14.321800 -55.929600 11.754300 -0.000000 0.000003 0.001906 0.043287 -14.820900 -2.192510 6.469440 -0.000001 179.557000 7.120540 -177.601000 -39.081100 -0.002282 -0.040193 0.009488 -0.020537 16.697400 -40.985400 0.000008 0.000006 -2.029490 0.686625 -59.724900 -11.754300 -0.000006 -0.000006 -0.001177 -0.017894 -17.300800
0.000000 0.000000 0.000000 0.000000 0.000000 -0.000000 -204.395000 93.728400 242.507000 62.417100 88.857300 23.609000 15.735700 0.000005 -0.000001 126.371000 87.322200 -126.004000 8.984550 -0.406207 -0.000000 -3.466260 3.138280 0.829186 16.377300 -0.000001 -0.000001 -4.005610 1.872680 -1.262980 6.456720 -0.000001 -0.000000 0.986837 0.230060 -0.465026 12.994200 -0.242716 4.980390 -91.569800 4.462000 -70.594600 5.348090 -0.000007 -0.000001 -37.977700 -24.195500 22.255700 24.328600 0.000019 0.000005 0.363404 2.972750 -6.959230 22.291600 -0.000001 0.000005 27.204200 4.717420 12.770800 12.994500 -0.242716 -4.980390 89.847300 0.579325 -75.239700 -5.348130 -0.000001 -0.000004 -63.421900 27.405600 -18.961500 -24.328900 0.000322 -0.000009 -6.436090 -4.257040 -56.648000 -22.291500 -0.000108 -0.000004 5.514530 5.458460 -4.944010 -2.192480 -6.469440 -0.000000 -175.075000 1.611590 -19.360700 39.081100 -0.000007 -0.000012 0.020941 -0.137211 8.677800 40.985400 -0.000006 -0.000013 -8.207920 12.623600 -58.111600 11.754300 -0.000000 0.000003 0.002094 0.050459 -14.530000 -2.192510 6.469440 -0.000001 179.498000 8.467620 -175.242000 -39.081100 -0.002282 -0.040193 0.003668 -0.001149 16.524700 -40.985400 0.000008 0.000006 -1.570560 1.705570 -59.890800 -11.754300 -0.000006 -0.000006 -0.005065 -0.062097 -19.099700
0.000000 0.000000 0.000000 0.000000 0.000000 -0.000000 -201.013000 92.535200 242.372000 40.299700 89.117300 45.947600 15.735700 0.000005 -0.000001 125.664000 87.321500 -125.293000 8.984550 -0.406207 -0.000000 -3.426070 3.085410 0.834809 16.377300 -0.000001 -0.000001 -3.516480 2.097450 -1.492480 6.456720 -0.000001 -0.000000 1.342750 0.496193 -0.356607 12.994200 -0.242716 4.980390 -91.706100 4.949840 -70.954500 5.348090 -0.000007 -0.000001 -36.104200 -25.321000 21.274900 24.328600 0.000019 0.000005 0.170764 1.829030 -5.341470 22.291600 -0.000001 0.000005 40.411900 4.481890 16.818700 12.994500 -0.242716 -4.980390 89.805200 0.752001 -75.475100 -5.348130 -0.000001 -0.000004 -61.523600 26.311500 -22.464900 -24.328900 0.000322 -0.000009 -6.551420 -4.321340 -56.726000 -22.291500 -0.000108 -0.000004 6.544120 5.465600 -5.204730 -2.192480 -6.469440 -0.000000 -174.696000 2.365150 -22.014100 39.081100 -0.000007 -0.000012 -0.002016 0.022447 5.129600 40.985400 -0.000006 -0.000013 -6.295110 9.477670 -64.361700 11.754300 -0.000000 0.000003 0.002099 0.050698 -14.520300 -2.192510 6.469440 -0.000001 179.052000 9.320210 -173.186000 -39.081100 -0.002282 -0.040193 -0.006786 0.031438 17.828800 -40.985400 0.000008 0.000006 -1.746260 1.931980 -61.563200 -11.754300 -0.000006 -0.000006 -0.010004 -0.103669 -20.796900
0.000000 0.000000 0.000000 0.000000 0.000000 -0.000000 -197.269000 91.086200 242.091000 -10.379800 89.323200 96.708400 15.735700 0.000005 -0.000001 125.772000 87.440300 -125.428000 8.984550 -0.406207 -0.000000 -3.623600 2.956700 0.781399 16.377300 -0.000001 -0.000001 -3.002520 2.027880 -1.175610 6.456720 -0.000001 -0.000000 1.955620 0.860106 -0.427334 12.994200 -0.242716 4.980390 -92.079800 6.146170 -71.263200 5.348090 -0.000007 -0.000001 -35.746900 -24.665200 19.144900 24.328600 0.000019 0.000005 0.218413 3.109150 -4.019590 22.291600 -0.000001 0.000005 47.016700 4.239110 20.718600 12.994500 -0.242716 -4.980390 89.672500 1.260110 -75.430400 -5.348130 -0.000001 -0.000004 -62.216800 24.149300 -23.244400 -24.328900 0.000322 -0.000009 -7.024930 -4.753730 -56.073500 -22.291500 -0.000108 -0.000004 8.815330 5.476110 -5.590150 -2.192480 -6.469440 -0.000000 -174.478000 3.268590 -24.542100 39.081100 -0.000007 -0.000012 -0.004348 0.050074 4.961420 40.985400 -0.000006 -0.000013 -6.723310 7.565620 -66.574800 11.754300 -0.000000 0.000003 0.002205 0.055555 -14.323400 -2.192510 6.469440 -0.000001 178.686000 8.915520 -171.883000 -39.081100 -0.002282 -0.040193 -0.014950 0.048285 20.725300 -40.985400 0.000008 0.000006 -2.312470 1.220860 -63.568600 -11.754300 -0.000006 -0.000006 -0.021370 -0.174762 -23.715900
